<?xml version="1.0" encoding="utf-8"?>
<!-- Generator: Adobe Illustrator 16.0.0, SVG Export Plug-In . SVG Version: 6.00 Build 0)  -->
<!DOCTYPE svg PUBLIC "-//W3C//DTD SVG 1.1//EN" "http://www.w3.org/Graphics/SVG/1.1/DTD/svg11.dtd">
<svg version="1.1" id="Capa_1" xmlns="http://www.w3.org/2000/svg" xmlns:xlink="http://www.w3.org/1999/xlink" x="0px" y="0px"
	 width="1127px" height="2008px" viewBox="0 0 1127 2008" enable-background="new 0 0 1127 2008" xml:space="preserve">
<g>
	<g>
		<path fill-rule="evenodd" clip-rule="evenodd" fill="#C9B282" d="M782.408,1256.265c12.739,35.182,5.745,63.877-22.728,85.896
			c-19.639,15.191-50.451,16.291-71.105,3c-32.957-21.215-40.16-51.341-27.868-88.14c-57.562,0-114.114,0-172.169,0
			c13.422,36.452,5.342,66.909-27.197,87.526c-22.506,14.264-47.3,13.864-69.764-1.394c-31.301-21.263-37.641-50.983-24.502-86.893
			c-11.193,0-20.902,0.104-30.604-0.022c-20.12-0.258-34.158-12.061-37.254-32.164c-2.401-15.574-4.868-31.258-5.456-46.962
			c-0.693-18.595,12.193-33.405,30.783-35c16.527-1.415,33.27-0.297,52.745-0.297c-20.379-126.875-40.327-251.061-60.425-376.182
			c-25.593,0-49.231,0.022-72.867-0.019c-5.107-0.006-10.385,0.54-15.292-0.526c-9.622-2.096-17.563-8.806-14.87-18.343
			c1.938-6.86,10.434-16.443,16.467-16.792c29.666-1.706,59.514-1.433,89.249-0.422c16.789,0.569,29.681,14.977,32.887,32.875
			c3.768,21.001,7.702,41.969,11.872,64.614c5.658,0,11.115-0.011,16.566,0.002c134.428,0.333,268.857,0.704,403.283,0.965
			c18.275,0.038,36.063,1.744,46.109,19.624c4.15,7.376,7.439,16.415,7.496,24.722c0.545,81.86,0.516,163.73,0.242,245.593
			c-0.122,36.564-23.988,59.991-62.381,60.023c-133.027,0.125-266.058-0.387-399.089-0.648c-15.22-0.027-30.44-0.003-46.931-0.003
			c2.035,15.331,3.727,28.073,5.648,42.555c6.182,0,11.572,0,16.965,0c152.102,0,304.205,0,456.31,0.005
			c20.271,0,29.088,5.241,29.468,17.456c0.383,12.412-9.887,18.921-29.92,18.945
			C800.204,1256.273,792.331,1256.265,782.408,1256.265z M509.171,864.472c-0.207,2.328-0.676,4.151-0.478,5.901
			c3.976,35.002,8.131,69.986,11.996,105.002c0.899,8.149,5.739,9.13,12.552,9.089c33.903-0.199,67.815-0.384,101.712,0.104
			c9.13,0.131,12.198-3.482,13.009-11.879c1.555-16.154,3.861-32.23,5.715-48.357c2.244-19.542,4.338-39.104,6.629-59.86
			C608.546,864.472,559.038,864.472,509.171,864.472z M801.773,1020.773c-39.421,0-77.052,0.176-114.674-0.137
			c-8.722-0.07-9.614,5.228-10.383,11.545c-1.796,14.746-3.806,29.467-5.487,44.227c-2.387,20.954-4.561,41.93-6.929,63.877
			c40.383,0,78.431,0.131,116.476-0.071c13.787-0.07,20.525-8.907,20.778-21.379C802.21,1086.847,801.773,1054.837,801.773,1020.773
			z M683.52,983.216c40.988,0,79.209,0,118.35,0c0-36.395-0.104-71.629,0.065-106.863c0.045-9.461-5.338-11.89-13.346-11.89
			c-20.437,0.012-40.873-0.019-61.309-0.021c-28.357-0.006-28.832-0.071-32.795,28.291
			C690.334,922.443,687.222,952.302,683.52,983.216z M484.722,983.677c-4.664-38.966-9.005-76.22-13.846-113.408
			c-0.327-2.518-4.412-6.479-6.797-6.514c-30.521-0.441-61.055-0.292-93.447-0.292c6.439,41.279,12.555,80.5,18.752,120.213
			C421.204,983.677,451.703,983.677,484.722,983.677z M527.177,1021.551c4.56,38.16,8.629,74.497,13.689,110.693
			c0.455,3.263,7.204,7.893,11.178,8.042c21.326,0.8,42.711,0.039,64.058,0.549c8.493,0.202,11.417-3.361,12.21-11.143
			c1.652-16.142,3.906-32.22,5.768-48.342c2.258-19.597,4.366-39.21,6.65-59.8C602.409,1021.551,565.994,1021.551,527.177,1021.551z
			 M395.058,1020.827c6.144,38.701,11.887,75.608,18.084,112.437c0.459,2.711,4.159,6.929,6.413,6.967
			c27.657,0.483,55.328,0.313,84.794,0.313c-4.75-39.253-9.123-76.407-14.033-113.485c-0.313-2.364-4.816-5.921-7.414-5.959
			C454.255,1020.669,425.603,1020.827,395.058,1020.827z M397.007,1287.307c0.196,16.944,14.326,30.596,31.284,30.219
			c16.638-0.37,30.412-14.991,29.839-31.672c-0.555-16.323-14.309-29.534-30.66-29.464
			C410.341,1256.466,396.806,1270.199,397.007,1287.307z M721.548,1256.376c-16.193,0.145-30.4,14.023-30.723,30.017
			c-0.332,16.327,14.463,31.156,31.067,31.139c17.03-0.017,30.174-13.883,29.885-31.531
			C751.499,1268.983,738.481,1256.226,721.548,1256.376z"/>
	</g>
</g>
</svg>
