<?xml version="1.0" encoding="utf-8"?>
<!-- Generator: Adobe Illustrator 16.0.0, SVG Export Plug-In . SVG Version: 6.00 Build 0)  -->
<!DOCTYPE svg PUBLIC "-//W3C//DTD SVG 1.1//EN" "http://www.w3.org/Graphics/SVG/1.1/DTD/svg11.dtd">
<svg version="1.1" id="Capa_1" xmlns="http://www.w3.org/2000/svg" xmlns:xlink="http://www.w3.org/1999/xlink" x="0px" y="0px"
	 width="651.969px" height="226.77px" viewBox="0 0 651.969 226.77" enable-background="new 0 0 651.969 226.77"
	 xml:space="preserve">
<g opacity="0.7">
	<g>
		<g>
			<path d="M658.889,166.914c-0.732-0.429-1.439-0.838-2.088-1.394c-0.619-0.535-1.146-1.162-1.67-1.783
				c-1.01-1.19-2.203-2.209-2.75-3.719c-0.064,0.09-0.129,0.183-0.191,0.271c1.369,0.887,2.557,2.002,3.656,3.203
				c1.027,1.127,2.035,2.313,2.826,3.61c0.305,0.502,0.797,0.203,0.494-0.295c-1.686-2.744-4.172-5.412-6.98-7.02
				c-0.191-0.109-0.258,0.131-0.189,0.272c0.715,1.484,1.857,2.752,2.908,4.008c1.016,1.214,2.348,2.923,4.023,3.171
				C659.135,167.273,658.979,166.967,658.889,166.914L658.889,166.914z"/>
		</g>
	</g>
</g>
<g>
	<g>
		<g>
			<path fill="#FFFFFF" d="M71.383,85.951c7.798-0.074,14.631,1.734,20.516,5.392c8.903,5.696,13.43,14.4,13.542,26.155
				c0.07,9.211-2.939,16.767-9.068,22.672c-6.275,5.969-14.31,9.002-24.083,9.092l-31.446,0.28l-0.024-2.841l8.449-0.077
				l-0.544-57.609l-8.446,0.084l-0.039-2.852L71.383,85.951z M63.489,88.868l0.544,57.612l8.021-0.073
				c3.287-0.034,6.062-0.724,8.32-2.083c5.8-3.501,8.642-12.565,8.488-27.206c-0.069-7.306-0.82-13.184-2.275-17.599
				c-2.531-7.218-7.483-10.795-14.882-10.718L63.489,88.868z"/>
			<path fill="#FFFFFF" d="M156.367,140.873c-3.536,5.796-9.428,8.73-17.65,8.809c-4.632,0.045-8.802-0.873-12.471-2.729
				c-7.71-3.943-11.608-11.001-11.713-21.21c-0.052-6.254,1.588-11.512,4.917-15.759c4.377-5.462,10.527-8.233,18.491-8.308
				c4.363-0.041,8.293,0.671,11.749,2.104c6.146,2.69,9.235,7.025,9.276,12.993c0.036,1.201-0.174,2.294-0.593,3.281
				c-1.787,3.958-8.349,5.809-19.677,5.571l-9.703-0.238c0.084,4.087,0.5,7.604,1.145,10.548
				c1.703,7.165,5.354,10.714,10.988,10.662c1.748-0.021,3.469-0.349,5.147-0.998c4.213-1.591,7.277-4.537,9.204-8.845l2.541,0.824
				C157.599,138.701,157.033,139.79,156.367,140.873z M128.958,122.339l6.757,0.256c2.806,0.111,4.914-0.082,6.331-0.594
				c1.944-0.785,2.918-2.838,2.883-6.141c-0.139-7.521-2.457-11.339-6.959-11.45C132.34,104.687,129.334,110.661,128.958,122.339z"
				/>
			<path fill="#FFFFFF" d="M216.332,199.115c0.915,0.137,1.377,1.017,1.385,2.633l-29.432,0.271l-0.024-2.731
				c1.972-0.027,3.556-0.176,4.75-0.463c2.306-0.664,3.454-2.431,3.419-5.32l-0.533-108.915l-8.224,0.077l-0.038-2.747l21.625-0.199
				l0.614,117.35l5.298-0.036C215.583,199.033,215.981,199.058,216.332,199.115z"/>
			<path fill="#FFFFFF" d="M251.991,142.258c-0.353,0.987-0.8,1.947-1.357,2.862c-2.754,4.52-7.142,6.821-13.117,6.876
				c-1.964,0.021-3.776-0.214-5.393-0.695c-5.507-1.696-8.271-5.679-8.338-11.937c-0.023-9.226,9.009-14.091,27.084-14.613
				l-0.063-6.869c-0.007-2.031-0.174-3.786-0.468-5.26c-0.748-3.999-2.764-5.995-6.083-5.96c-0.989,0.017-1.854,0.19-2.628,0.551
				c-1.19,0.719-2.15,2.496-2.911,5.309c-0.269,0.983-0.475,1.692-0.614,2.118c-1.026,2.967-3.043,4.454-6.073,4.492
				c-0.699,0.003-1.375-0.087-2.004-0.312c-2.61-0.674-3.923-2.384-3.946-5.127c-0.025-1.189,0.286-2.324,0.897-3.386
				c2.435-4.17,8.418-6.311,18.005-6.396c2.454-0.019,4.746,0.206,6.857,0.681c8.174,1.958,12.307,7.343,12.408,16.139l0.185,22.047
				c0.045,3.376,0.817,5.127,2.381,5.249c2.037-0.087,3.238-2.559,3.623-7.427l2.747,0.087c-0.171,2.18-0.479,3.983-0.897,5.391
				c-1.233,3.736-4.405,5.622-9.547,5.685C257.11,151.454,253.522,148.292,251.991,142.258z M244.637,147.074
				c2.959-1.162,5.067-4.195,6.373-9.142l-0.104-10.227c-3.169,0.171-5.769,0.579-7.804,1.229c-3.784,1.44-5.657,4.495-5.616,9.13
				c0.124,6.126,1.934,9.238,5.48,9.344C243.443,147.402,244.011,147.295,244.637,147.074z"/>
			<path fill="#FFFFFF" d="M306.126,151.996l-0.02-2.85l10.034-0.095l-0.544-96.565l-1.797,0.011
				c-2.409,0.018-4.436,0.496-6.101,1.427c-2.464,1.435-4.426,4.408-5.934,8.928l-3.203,9.521l-3.165,0.036l0.219-22.589
				l54.664-0.517l0.634,22.578l-3.162,0.028l-3.36-9.461c-0.521-1.342-0.962-2.496-1.405-3.478
				c-2.156-4.478-5.771-6.689-10.834-6.642l-1.801,0.011l0.552,96.583l7.183-0.069c1.471,0.129,2.439,1.068,2.863,2.816
				L306.126,151.996z"/>
			<path fill="#FFFFFF" d="M209.519,199.036l3.342-0.015c2.394-0.023,4.433-0.507,6.112-1.424c2.457-1.445,4.421-4.408,5.93-8.921
				l3.19-9.529l3.163-0.034l-0.224,22.585l-42.706,0.32v-2.84c8.103,0,7.954-2.521,7.954-6.245l-0.534-108.223l-7.158,0.066
				c-1.477-0.126-2.44-1.067-2.879-2.823l23.279-0.234L209.519,199.036z"/>
			<path fill="#FFFFFF" d="M382.227,149.13c0.941,0.137,1.393,1.017,1.402,2.621l-25.953,0.245l-0.033-2.744
				c0.92-0.007,1.716-0.084,2.441-0.23c2.459-0.438,3.658-2.213,3.629-5.312l-0.327-34.39l-6.101,0.057l-0.039-2.747l19.527-0.188
				l0.395,42.622l3.906-0.027C381.5,149.028,381.891,149.063,382.227,149.13z M376.572,96.417c-1.459,2.622-3.721,3.948-6.827,3.972
				c-1.271,0.021-2.498-0.286-3.695-0.911c-2.774-1.378-4.144-3.616-4.197-6.711c0-1.341,0.307-2.607,0.928-3.805
				c1.524-2.757,3.783-4.149,6.819-4.185c1.348-0.011,2.604,0.328,3.813,1.037c2.748,1.441,4.137,3.709,4.172,6.816
				C377.609,93.95,377.267,95.22,376.572,96.417z"/>
			<path fill="#FFFFFF" d="M432.688,143.176c-3.539,5.793-9.424,8.736-17.652,8.82c-4.635,0.041-8.816-0.87-12.48-2.729
				c-7.707-3.934-11.602-11.004-11.706-21.21c-0.042-6.258,1.592-11.511,4.911-15.771c4.395-5.444,10.547-8.221,18.508-8.289
				c4.344-0.046,8.264,0.655,11.727,2.104c6.137,2.685,9.258,7.016,9.299,13.004c0.008,1.19-0.195,2.28-0.602,3.266
				c-1.793,3.964-8.342,5.816-19.684,5.568l-9.711-0.224c0.123,4.084,0.504,7.595,1.158,10.549
				c1.684,7.153,5.346,10.693,10.967,10.651c1.768-0.025,3.48-0.356,5.182-1.011c4.195-1.575,7.266-4.521,9.188-8.828l2.549,0.813
				C433.913,141.02,433.366,142.115,432.688,143.176z M405.272,124.66l6.762,0.255c2.799,0.11,4.92-0.091,6.313-0.59
				c1.977-0.793,2.932-2.846,2.908-6.149c-0.141-7.528-2.465-11.336-6.961-11.435C408.655,107,405.659,112.981,405.272,124.66z"/>
			<path fill="#FFFFFF" d="M470.864,149.088c0.9,0.134,1.389,1.005,1.396,2.621l-29.855,0.287l-0.027-2.737
				c0.91-0.007,1.717-0.084,2.418-0.24c2.447-0.436,3.672-2.206,3.631-5.313l-0.324-34.381L442,109.377l-0.035-2.754l18.479-0.168
				l0.814,9.805c0.754-1.973,1.875-3.818,3.326-5.525c3.273-3.459,7.088-5.23,11.459-5.27c0.92-0.012,1.793,0.083,2.646,0.282
				c3.449,0.886,5.199,3.085,5.236,6.605c0,0.991-0.219,1.944-0.633,2.858c-1.154,2.678-3.168,4.031-5.953,4.06
				c-0.855,0.015-1.625-0.084-2.338-0.289c-1.479-0.549-2.861-1.947-4.152-4.182c-0.93-1.609-1.779-2.412-2.533-2.404
				c-0.447,0-0.902,0.114-1.391,0.331c-3.082,1.645-4.838,6.167-5.248,13.558l0.223,22.782l7.799-0.073
				C470.116,148.99,470.487,149.035,470.864,149.088z"/>
			<path fill="#FFFFFF" d="M517.542,149.088c0.914,0.134,1.389,1.009,1.408,2.615l-29.875,0.293l-0.021-2.751
				c0.908-0.012,1.703-0.083,2.428-0.225c2.461-0.456,3.676-2.216,3.646-5.315l-0.336-34.396l-6.107,0.057l-0.035-2.736
				l18.484-0.188l0.816,9.814c0.75-1.969,1.854-3.814,3.301-5.528c3.297-3.466,7.121-5.229,11.475-5.273
				c0.932-0.011,1.787,0.095,2.645,0.29c3.459,0.887,5.195,3.089,5.225,6.604c0.02,0.984-0.182,1.94-0.592,2.858
				c-1.174,2.677-3.156,4.034-5.979,4.069c-0.869,0-1.635-0.098-2.332-0.305c-1.498-0.551-2.873-1.937-4.152-4.188
				c-0.926-1.596-1.787-2.408-2.547-2.401c-0.445,0-0.877,0.122-1.375,0.335c-3.088,1.651-4.836,6.171-5.248,13.553l0.201,22.783
				l7.809-0.066C516.801,148.98,517.186,149.021,517.542,149.088z"/>
			<path fill="#FFFFFF" d="M563.864,142.266c-0.352,0.984-0.791,1.946-1.35,2.857c-2.777,4.537-7.154,6.831-13.123,6.873
				c-1.965,0.021-3.775-0.206-5.389-0.688c-5.5-1.703-8.293-5.679-8.348-11.95c-0.02-9.204,9.012-14.074,27.084-14.603l-0.074-6.862
				c0-2.038-0.15-3.787-0.457-5.259c-0.746-4.011-2.766-6.001-6.08-5.962c-0.971,0.014-1.871,0.192-2.617,0.548
				c-1.197,0.716-2.15,2.489-2.902,5.302c-0.283,0.998-0.482,1.692-0.639,2.126c-1.018,2.959-3.043,4.456-6.059,4.487
				c-0.697,0.012-1.381-0.104-2.01-0.296c-2.617-0.677-3.908-2.396-3.943-5.131c-0.027-1.204,0.283-2.331,0.904-3.386
				c2.436-4.183,8.418-6.313,17.984-6.404c2.479-0.024,4.773,0.199,6.869,0.678c8.197,1.964,12.311,7.339,12.381,16.131
				l0.207,22.055c0.041,3.372,0.848,5.129,2.393,5.251c2.029-0.093,3.23-2.569,3.607-7.422l2.754,0.081
				c-0.199,2.188-0.508,3.977-0.904,5.382c-1.225,3.74-4.41,5.652-9.547,5.692C568.979,151.462,565.399,148.295,563.864,142.266z
				 M556.52,147.074c2.945-1.148,5.055-4.188,6.346-9.131l-0.09-10.236c-3.17,0.171-5.771,0.586-7.807,1.242
				c-3.771,1.435-5.625,4.476-5.596,9.116c0.125,6.126,1.936,9.238,5.463,9.344C555.333,147.409,555.899,147.298,556.52,147.074z"/>
		</g>
	</g>
	<g>
		<path fill="#FFFFFF" d="M236.564,172.545v-0.631h2.208v-12.708h-0.398c-0.522,0-0.977,0.102-1.347,0.307
			c-0.547,0.308-0.983,0.96-1.333,1.954l-0.719,2.096h-0.691l0.091-4.979h12.048l0.09,4.979h-0.698l-0.711-2.096
			c-0.109-0.299-0.214-0.547-0.308-0.773c-0.467-0.98-1.253-1.486-2.373-1.486h-0.39v12.708h1.577c0.328,0.03,0.53,0.24,0.636,0.631
			L236.564,172.545L236.564,172.545z"/>
		<path fill="#FFFFFF" d="M265.228,172.545v-0.631h1.648l-1.76-4.464h-4.62l-1.672,4.464h1.299c0.09,0,0.177,0.007,0.254,0.021
			c0.202,0.03,0.301,0.239,0.301,0.609h-4.276v-0.631h1.477l5.106-13.332h1.721l5.49,13.332h0.711c0.074,0,0.171,0.007,0.245,0.021
			c0.199,0.03,0.299,0.239,0.299,0.609h-6.223V172.545z M262.779,161.401l-2.004,5.352h4.07L262.779,161.401z"/>
		<path fill="#FFFFFF" d="M281.455,172.545v-0.631h1.867v-12.708h-1.867v-0.624h7.096v0.624h-1.977v12.708h2.402
			c0.447,0,0.873-0.077,1.225-0.234c0.6-0.289,1.072-0.962,1.4-2.004l0.669-2.181h0.676l-0.09,5.05H281.455L281.455,172.545z"/>
		<path fill="#FFFFFF" d="M302.951,172.545v-0.631h1.857v-12.708h-1.857v-0.624h7.091v0.624h-1.975v12.708h2.387
			c0.475,0,0.897-0.077,1.243-0.234c0.6-0.289,1.067-0.962,1.399-2.004l0.674-2.181h0.674l-0.091,5.05H302.951L302.951,172.545z"/>
		<path fill="#FFFFFF" d="M335.493,163.048l-0.51-1.603c-0.057-0.142-0.104-0.284-0.161-0.414c-0.479-1.219-1.362-1.825-2.631-1.825
			h-2.633V165h4.468v0.708h-4.468v6.206h2.633c0.293,0,0.572-0.031,0.83-0.099c0.888-0.227,1.521-0.935,1.935-2.141l0.537-1.601
			h0.67l-0.091,4.47h-11.636v-0.631h1.867v-12.708h-1.867v-0.624h11.636l0.091,4.466L335.493,163.048L335.493,163.048z"/>
		<path fill="#FFFFFF" d="M347.213,172.545v-0.631h1.863v-12.708h-1.863v-0.624h7.762c1.242,0,2.311,0.304,3.17,0.89
			c1.025,0.69,1.549,1.612,1.549,2.764c0,0.341-0.066,0.675-0.152,0.994c-0.371,1.327-1.369,2.213-3.002,2.657l3.588,6.049h0.301
			c0.076,0,0.156,0.01,0.229,0.03c0.246,0.045,0.385,0.234,0.385,0.579l-4.104,0.024l-3.463-6.404h-1.145v5.749h1.864v0.631H347.213
			z M352.331,159.206v6.261h1.44c0.457,0,0.883-0.114,1.237-0.338c0.804-0.521,1.209-1.444,1.209-2.774
			c0-0.436-0.057-0.849-0.161-1.264c-0.366-1.253-1.201-1.885-2.464-1.885H352.331z"/>
		<path fill="#FFFFFF" d="M395.566,171.258c-1.054,1.016-2.565,1.521-4.544,1.521c-1.684,0-3.128-0.397-4.32-1.188
			c0,0.265-0.016,0.474-0.046,0.632c-0.073,0.241-0.325,0.368-0.751,0.368v-4.931h0.908c0.079,0.813,0.236,1.55,0.516,2.188
			c0.664,1.501,1.821,2.255,3.471,2.255c0.433,0,0.83-0.068,1.186-0.188c0.992-0.371,1.48-1.109,1.48-2.238
			c0-0.316-0.063-0.642-0.202-0.949c-0.328-0.65-1.159-1.322-2.496-2.02c-1.481-0.769-2.32-1.205-2.507-1.33
			c-1.475-0.918-2.207-2.019-2.207-3.299c0-0.872,0.299-1.626,0.902-2.266c0.953-0.975,2.371-1.462,4.24-1.462
			c1.432,0,2.785,0.307,4.064,0.907c0-0.145,0.006-0.262,0.019-0.373c0.087-0.294,0.343-0.438,0.782-0.438v4.206h-0.914
			c-0.008-0.834-0.209-1.563-0.607-2.17c-0.636-0.957-1.59-1.438-2.854-1.438c-0.321,0-0.636,0.05-0.937,0.144
			c-0.886,0.286-1.332,0.897-1.332,1.813c0,0.361,0.076,0.694,0.24,1.033c0.331,0.655,1.143,1.325,2.446,2.011
			c1.425,0.767,2.233,1.204,2.437,1.309c1.41,0.907,2.129,2.015,2.129,3.31C396.668,169.676,396.299,170.556,395.566,171.258z"/>
		<path fill="#FFFFFF" d="M415.973,172.545v-0.631h1.652l-1.746-4.464h-4.643l-1.662,4.464h1.299c0.092,0,0.17,0.007,0.244,0.021
			c0.207,0.03,0.307,0.239,0.307,0.609h-4.277v-0.631h1.492l5.094-13.332h1.729l5.479,13.332h0.713c0.08,0,0.17,0.007,0.252,0.021
			c0.188,0.03,0.307,0.239,0.307,0.609h-6.238V172.545z M413.52,161.401l-2,5.352h4.078L413.52,161.401z"/>
		<path fill="#FFFFFF" d="M432.206,172.545v-0.631h1.863v-12.708h-1.863v-0.624h7.086v0.624h-1.977v12.708h2.4
			c0.469,0,0.869-0.077,1.236-0.234c0.598-0.289,1.066-0.962,1.389-2.004l0.686-2.181h0.67l-0.09,5.05H432.206L432.206,172.545z"/>
		<path fill="#FFFFFF" d="M453.454,158.582h6.988v0.624h-1.863v8.03c0,0.891,0.068,1.647,0.205,2.279
			c0.383,1.706,1.35,2.563,2.914,2.563c2.484-0.016,3.727-1.627,3.756-4.842v-8.03h-1.871v-0.624h4.582v0.624h-1.859v7.892
			c0,1.103-0.123,2.038-0.373,2.819c-0.646,1.898-2.223,2.861-4.717,2.861c-3.9-0.014-5.861-1.805-5.896-5.359v-8.213h-1.863v-0.624
			H453.454z"/>
		<path fill="#FFFFFF" d="M485.147,158.582c1.723,0,3.225,0.415,4.516,1.23c1.955,1.271,2.924,3.207,2.924,5.798
			c0,2.033-0.678,3.688-2.041,4.982c-1.398,1.3-3.172,1.951-5.33,1.951h-6.945v-0.631h1.863v-12.708h-1.863v-0.624L485.147,158.582
			L485.147,158.582z M483.397,159.206v12.708h1.764c0.738,0,1.352-0.15,1.842-0.443c1.299-0.758,1.926-2.75,1.926-5.975
			c0-1.616-0.145-2.918-0.463-3.887c-0.543-1.601-1.617-2.403-3.25-2.403H483.397z"/>
		<path fill="#FFFFFF" d="M511.76,172.545v-0.631h1.643l-1.738-4.464h-4.643l-1.66,4.464h1.297c0.098,0,0.176,0.007,0.266,0.021
			c0.195,0.03,0.295,0.239,0.295,0.609h-4.283v-0.631h1.496l5.098-13.332h1.717l5.479,13.332h0.713c0.098,0,0.174,0.007,0.256,0.021
			c0.205,0.03,0.309,0.239,0.309,0.609h-6.242V172.545z M509.319,161.401l-2.004,5.352h4.068L509.319,161.401z"/>
		<path fill="#FFFFFF" d="M540.043,162.68c-0.396,1.089-1.275,1.845-2.676,2.3c0.373,0.053,0.727,0.117,1.07,0.209
			c1.873,0.495,2.814,1.608,2.814,3.329c0,0.775-0.238,1.497-0.695,2.142c-0.951,1.256-2.488,1.887-4.609,1.887h-7.953v-0.631h1.859
			v-12.708h-1.859v-0.624h7.541c0.854,0,1.604,0.098,2.279,0.273c1.602,0.473,2.393,1.422,2.393,2.866
			C540.208,162.033,540.157,162.354,540.043,162.68z M533.108,159.206v5.455h1.305c0.279,0,0.545-0.038,0.785-0.098
			c1.086-0.317,1.623-1.205,1.623-2.66c-0.008-1.756-0.873-2.659-2.598-2.697H533.108z M533.108,165.308v6.606h1.563
			c0.195,0,0.396-0.008,0.602-0.045c1.611-0.241,2.422-1.407,2.422-3.52c0-0.46-0.074-0.89-0.217-1.303
			c-0.404-1.161-1.217-1.74-2.465-1.74L533.108,165.308L533.108,165.308z"/>
		<path fill="#FFFFFF" d="M551.829,172.545v-0.631h1.863v-12.708h-1.863v-0.624h7.092v0.624h-1.975v12.708h2.4
			c0.459,0,0.879-0.077,1.229-0.234c0.613-0.289,1.076-0.962,1.396-2.004l0.678-2.181h0.67l-0.084,5.05H551.829L551.829,172.545z"/>
		<path fill="#FFFFFF" d="M584.381,163.048l-0.506-1.603c-0.063-0.142-0.111-0.284-0.182-0.414
			c-0.469-1.219-1.355-1.825-2.625-1.825h-2.623V165h4.467v0.708h-4.467v6.206h2.623c0.301,0,0.58-0.031,0.838-0.099
			c0.885-0.227,1.535-0.935,1.934-2.141l0.541-1.601h0.678l-0.098,4.47h-11.641v-0.631h1.863v-12.708h-1.863v-0.624h11.641
			l0.098,4.466L584.381,163.048L584.381,163.048z"/>
	</g>
</g>
</svg>
